<svg xmlns="http://www.w3.org/2000/svg" viewBox="0 0 1920.39 1080"><defs><style>.cls-1{fill:#ffe1d4;}.cls-2{fill:none;stroke:#ff1d25;stroke-miterlimit:10;stroke-width:7px;}.cls-3{fill:#a2e1d4;}.cls-4{fill:#ffc07f;}.cls-5{fill:#3f3fce;}.cls-6{fill:#3f3fff;}</style></defs><title>bg</title><g id="Layer_2" data-name="Layer 2"><g id="Layer_2-2" data-name="Layer 2"><rect class="cls-1" x="0.39" width="1920" height="1080"/><line class="cls-2" x1="866.89" y1="395.5" x2="1036.89" y2="565.5"/><line class="cls-2" x1="834.89" y1="427.5" x2="1004.89" y2="597.5"/><line class="cls-2" x1="807.39" y1="455" x2="977.39" y2="625"/><circle class="cls-3" cx="574.39" cy="207" r="25"/><circle class="cls-3" cx="524.39" cy="257" r="25"/><circle class="cls-3" cx="574.39" cy="307" r="25"/><circle class="cls-3" cx="524.39" cy="357" r="25"/><rect class="cls-4" x="154.39" y="266" width="19" height="492"/><rect class="cls-4" x="211.39" y="266" width="19" height="492"/><rect class="cls-4" x="268.39" y="266" width="19" height="492"/><rect class="cls-4" x="325.39" y="266" width="19" height="492"/><rect class="cls-4" x="382.39" y="266" width="19" height="492"/><path class="cls-5" d="M0,0,.39,151c76-50,215.56-57.33,311-44,91.94,12.85,97.43,38.4,174,43,122.18,7.34,145.91-55.46,283-54,80.72.86,70.24,22.61,160,25,115.34,3.07,153.54-14.15,261-35,26.95-5.23,52-8.19,78.67-7,73.15,3.25,125.43,31.33,142.33,39,52,23.64,150.66,18.23,356-118Z"/><path d="M783.18,1080a171,171,0,1,0-315.58,0Z"/><path class="cls-6" d="M.39,0V130c76-50,200.56-57.33,296-44,91.94,12.85,97.43,38.4,174,43,122.18,7.34,145.91-55.46,283-54,80.72.86,70.24,22.61,160,25,115.34,3.07,153.54-14.15,261-35,26.95-5.23,52-8.19,78.67-7,73.15,3.25,125.43,31.33,142.33,39,49.22,22.36,140.12,18.72,323.56-97Z"/></g></g></svg>